<?xml version="1.0" encoding="iso-8859-1"?>
<!-- Generator: Adobe Illustrator 19.0.0, SVG Export Plug-In . SVG Version: 6.00 Build 0)  -->
<svg version="1.1" id="Capa_1" xmlns="http://www.w3.org/2000/svg" xmlns:xlink="http://www.w3.org/1999/xlink" x="0px" y="0px"
	 viewBox="0 0 512 512" style="enable-background:new 0 0 512 512;" xml:space="preserve">
<g transform="matrix(1.25 0 0 -1.25 0 45)">
	<g>
		<g>
			<path style="fill:#DD2E44;" d="M409.6-328.089c0-25.134-20.378-45.511-45.511-45.511H45.511C20.378-373.6,0-353.222,0-328.089
				V-9.511C0,15.622,20.378,36,45.511,36h318.578C389.222,36,409.6,15.622,409.6-9.511V-328.089z"/>
			<g>
				<path style="fill:#FFFFFF;" d="M111.07-106.427c0-8.875-5.916-16.839-15.246-16.839s-16.612,6.827-30.265,6.827
					c-9.796,0-18.671-5.234-18.671-14.791c0-23.438,76.015-8.42,76.015-67.14c0-32.552-26.852-52.816-58.266-52.816
					c-17.522,0-55.307,4.107-55.307,25.498c0,8.875,5.928,16.156,15.246,16.156c10.706,0,23.45-8.875,38.241-8.875
					c15.03,0,23.222,8.42,23.222,19.581c0,26.852-76.026,10.684-76.026,63.488c0,31.869,26.18,51.666,56.457,51.666
					C79.212-83.671,111.07-88.439,111.07-106.427"/>
				<path style="fill:#FFFFFF;" d="M247.615-167.435c0,27.546-14.347,52.361-42.792,52.361s-42.78-24.815-42.78-52.361
					c0-27.762,13.881-52.349,42.78-52.349C233.734-219.784,247.615-195.196,247.615-167.435 M126.521-167.435
					c0,47.343,31.869,83.763,78.302,83.763c45.75,0,78.29-37.547,78.29-83.763c0-47.115-31.63-83.752-78.29-83.752
					C158.618-251.186,126.521-214.55,126.521-167.435"/>
				<path style="fill:#FFFFFF;" d="M388.437-106.427c0-8.875-5.928-16.839-15.269-16.839c-9.33,0-16.6,6.827-30.265,6.827
					c-9.774,0-18.671-5.234-18.671-14.791c0-23.438,76.026-8.42,76.026-67.14c0-32.552-26.84-52.816-58.266-52.816
					c-17.51,0-55.307,4.107-55.307,25.498c0,8.875,5.928,16.156,15.258,16.156c10.695,0,23.45-8.875,38.229-8.875
					c15.019,0,23.222,8.42,23.222,19.581c0,26.852-76.026,10.684-76.026,63.488c0,31.869,26.18,51.666,56.445,51.666
					C356.568-83.671,388.437-88.439,388.437-106.427"/>
			</g>
		</g>
	</g>
</g>
<g>
</g>
<g>
</g>
<g>
</g>
<g>
</g>
<g>
</g>
<g>
</g>
<g>
</g>
<g>
</g>
<g>
</g>
<g>
</g>
<g>
</g>
<g>
</g>
<g>
</g>
<g>
</g>
<g>
</g>
</svg>
